# xmcd
#
# Track frame offsets:
#       150
#       12620
#       25621
#       38345
#       51590
#       65004
#       78564
#       91947
#       105364
#       118129
#       131373
#       144251
#       156014
#       168140
#       179225
#       191341
#       203115
#       216840
#       230639
#       244835
#       257883
#       270542
#       282168
#       293235
#       306737
#       318004
#
# Disc length: 4404 seconds
#
# Revision: 0
# Processed by: cddbd v1.4PL0 Copyright (c) Steve Scherf et al.
# Submitted via: WhereIsIt 3.26
#
DISCID=7911321a
DTITLE=Hank Williams - Complete cd 2
DYEAR=1900
DGENRE=
TTITLE0=lost highway
TTITLE1=may you never be alone
TTITLE2=dear brother
TTITLE3=jesus remebered me
TTITLE4=mind your own business
TTITLE5=you're gonna change
TTITLE6=wedding bells
TTITLE7=I've just told mama goodbye
TTITLE8=I'm so lonesome I could cry
TTITLE9=a house without love
TTITLE10=I just don't like this kind of livin
TTITLE11=my bucket's got a hole in it
TTITLE12=long gone lonesome blues
TTITLE13=why don't you love me
TTITLE14=why should we try anymore
TTITLE15=my son calls another man daddy
TTITLE16=too many parties too many pals
TTITLE17=beyond the sunset
TTITLE18=the funeral
TTITLE19=everything okay
TTITLE20=they'll never take her love from me
TTITLE21=nobody's lonesome for me
TTITLE22=moanin' the blues
TTITLE23=help me understand
TTITLE24=no no joe
TTITLE25=cold cold heart
EXTD=
EXTT0=
EXTT1=
EXTT2=
EXTT3=
EXTT4=
EXTT5=
EXTT6=
EXTT7=
EXTT8=
EXTT9=
EXTT10=
EXTT11=
EXTT12=
EXTT13=
EXTT14=
EXTT15=
EXTT16=
EXTT17=
EXTT18=
EXTT19=
EXTT20=
EXTT21=
EXTT22=
EXTT23=
EXTT24=
EXTT25=
PLAYORDER=
